<svg xmlns="http://www.w3.org/2000/svg" x="0px" y="0px" width="32" height="32" viewBox="0 0 32 32">
<path fill="#e41e2f" fill-rule="evenodd" d="M17.003,23.003h-2v-2h-2	v-2h-2v-2h-3v-8h3v2h2v2h2v2h2v-2h2v-2h2v-2h3v8h-3v2h-2v2h-2V23.003z" clip-rule="evenodd"></path><path fill="#b4252c" fill-rule="evenodd" d="M3.003,11.003v-4h2v-2h2	v2h2v8l-2,2l-3-3v-2L3.003,11.003z" clip-rule="evenodd"></path><path fill="#589bd4" fill-rule="evenodd" d="M3.003,25.003v-14h2v2h2	v2h2v12h-4v-2H3.003z" clip-rule="evenodd"></path><path fill="#fcc201" fill-rule="evenodd" d="M29.003,11.003v-4h-2v-2	h-2v2h-2v8l2,2l3-3v-2L29.003,11.003z" clip-rule="evenodd"></path><path fill="#00953f" fill-rule="evenodd" d="M29.003,25.003v-14h-2v2	h-2v2h-2v12h4v-2H29.003z" clip-rule="evenodd"></path>
</svg>