<svg xmlns="http://www.w3.org/2000/svg" x="0px" y="0px" width="100" height="100" viewBox="0,0,256,256"
style="fill:#FFFFFF;">
<g fill="#ffffff" fill-rule="nonzero" stroke="none" stroke-width="1" stroke-linecap="butt" stroke-linejoin="miter" stroke-miterlimit="10" stroke-dasharray="" stroke-dashoffset="0" font-family="none" font-weight="none" font-size="none" text-anchor="none" style="mix-blend-mode: normal"><g transform="scale(8,8)"><path d="M10,4v2h12v-2zM22,6v2h2v-2zM24,8v2h2v-2zM26,10v12h2v-12zM26,22h-2v2h2zM24,24h-2v2h2zM22,26h-12v2h12zM10,26v-2h-2v2zM8,24v-2h-2v2zM6,22v-12h-2v12zM6,10h2v-2h-2zM8,8h2v-2h-2zM15,10v5h-5v2h5v5h2v-5h5v-2h-5v-5z"></path></g></g>
</svg>